<svg xmlns="http://www.w3.org/2000/svg" viewBox="0 0 98.38 41.55"><defs><style>.cls-1,.cls-2{fill:#fff;}.cls-1,.cls-2,.cls-3{stroke:#fff;stroke-miterlimit:10;}.cls-2{font-size:24px;font-family:UVFDINPro, UVF DIN Pro;}.cls-3{fill:none;}</style></defs><title>Asset 2</title><g id="Layer_2" data-name="Layer 2"><g id="Isolation_Mode" data-name="Isolation Mode"><path class="cls-1" d="M4.5,40.88a4,4,0,0,1-4-4V4.5a4,4,0,0,1,8,0V36.88A4,4,0,0,1,4.5,40.88Z"/><path class="cls-1" d="M28.86,4.48s0-.07,0-.1,0,0,0,0S28.87,4.43,28.86,4.48Z"/><path class="cls-1" d="M24.88,32.38A12,12,0,0,1,19.45,9.68a6.24,6.24,0,0,1-2.74-7.55,20,20,0,0,0,8.16,38.24,4,4,0,0,0,0-8Z"/><path class="cls-1" d="M36.69,40.56a4,4,0,0,1-4-4V8.5H21.88a4,4,0,0,1,0-8H40.69V36.56A4,4,0,0,1,36.69,40.56Z"/><circle class="cls-1" cx="23.31" cy="23.88" r="4.19"/><text class="cls-2" transform="translate(51.43 35.56)">f</text><text class="cls-2" transform="translate(84.8 35.56)">d</text><circle class="cls-3" cx="65.82" cy="28.15" r="6.9"/><circle class="cls-3" cx="77.32" cy="28.15" r="6.9"/><path class="cls-1" d="M74.42,18.62a6.73,6.73,0,0,1,.4,1.64c.57-.38,5.78-3.94,6.68-9.37a18.08,18.08,0,0,1-5,7.15s-2.08-2.91,0-4.87,5.22-3.46,5.45-6c0,0,5.14,9.62-4.53,11.56a12.76,12.76,0,0,1-2.57,2l0-.19c0,.07,0,.14,0,.21l-.47-.12a10.29,10.29,0,0,0-3.43-7.26,12.27,12.27,0,0,1,2.67,5.44s-2.58-.26-3.23-2.06-.11-4-1.74-5.2C68.63,11.53,77.18,13.08,74.42,18.62Z"/></g></g></svg>