<svg xmlns="http://www.w3.org/2000/svg" xmlns:xlink="http://www.w3.org/1999/xlink" viewBox="0 0 655.94 305.42"><defs><style>.cls-1{fill:url(#linear-gradient);}.cls-2{fill:url(#linear-gradient-2);}.cls-3{fill:#4d4d4d;}.cls-4{fill:gray;}.cls-5{fill:#bc0000;}</style><linearGradient id="linear-gradient" x1="290.35" y1="-37.95" x2="-293.65" y2="472.05" gradientUnits="userSpaceOnUse"><stop offset="0" stop-color="#ed1c24"/><stop offset="0.09" stop-color="#d81e26"/><stop offset="0.24" stop-color="#ba2128"/><stop offset="0.4" stop-color="#a3242a"/><stop offset="0.57" stop-color="#92262c"/><stop offset="0.76" stop-color="#88272d"/><stop offset="0.99" stop-color="#85272d"/></linearGradient><linearGradient id="linear-gradient-2" x1="359.21" y1="40.9" x2="-224.79" y2="550.9" xlink:href="#linear-gradient"/></defs><title>Asset 1</title><g id="Layer_2" data-name="Layer 2"><g id="_9" data-name="9"><path id="_Path_" data-name="&lt;Path&gt;" class="cls-1" d="M63.45,174A24.39,24.39,0,0,0,89,193.24c10.35-.91,24.11-11.15,24.19-21.7,4.94-18-11.79-25.56,19.12-85,0,0,32.78-61.36,92.3-66.6,0,0,25.37.3,13.87,23.28,0,0-7.35,12.47,4.78,6.34,0,0,22.2-21.39,7.58-38.69-14.39-17-52.3-13.56-88.93,7,0,0-73.89,37.86-95.28,119.48C64.25,146.24,61,159.17,63.45,174Z"/><path id="_Path_2" data-name="&lt;Path&gt;" class="cls-2" d="M344.9,113.05a62.56,62.56,0,0,0-45.26-54.57A93.42,93.42,0,0,0,282.2,56.1a135,135,0,0,0-39.7,4.5C220.75,66.16,176.27,85,170,109.69c-3.92,15.44,10.65,38.64,38.56,31.26,12.39-3.27,21.83-9.84,31.71-22.36C251,105,258.06,84.65,285.5,86.83c11.16.89,18.68,9.82,19.86,22.27,1,10.53.39,32.63-44.36,67.84-20.43,14.83-28.73,28.69-107.18,51,0,0-69.32,17.91-143.69,17,0,0-17.47.7-6.53,9.87,0,0,33,11.69,97.62,9.51,0,0,92.91-4.52,156.15-38.24,45.39-24.2,87.19-58.29,87.74-105.69,0-.47,0-.94,0-1.42,0-1.48-.07-3-.17-4.45,0-.45,0-.89-.05-1.34A.5.5,0,0,0,344.9,113.05Z"/><path class="cls-3" d="M401.45,214.43a1,1,0,0,1-.88.58,1.93,1.93,0,0,1-1.14-.63,14.59,14.59,0,0,0-1.88-1.39,14.74,14.74,0,0,0-3-1.41,13,13,0,0,0-4.39-.64,13.15,13.15,0,0,0-4.59.74,9.61,9.61,0,0,0-3.32,2,8.53,8.53,0,0,0-2,3,9.36,9.36,0,0,0-.69,3.56,7.3,7.3,0,0,0,1,4,9.4,9.4,0,0,0,2.73,2.71,17.9,17.9,0,0,0,3.85,1.88c1.43.51,2.91,1,4.42,1.51s3,1,4.43,1.64a15.86,15.86,0,0,1,3.84,2.26,10.24,10.24,0,0,1,2.73,3.34,10.55,10.55,0,0,1,1,4.93,15.57,15.57,0,0,1-1,5.68,13.27,13.27,0,0,1-3,4.62,14.12,14.12,0,0,1-4.81,3.11,17.63,17.63,0,0,1-6.51,1.13,18.38,18.38,0,0,1-8.17-1.68,19.37,19.37,0,0,1-6-4.59l1-1.49a1.19,1.19,0,0,1,.95-.51,1.33,1.33,0,0,1,.78.41l1.15,1c.45.39,1,.82,1.63,1.28a12.38,12.38,0,0,0,2.2,1.29,15.16,15.16,0,0,0,6.58,1.41,14.13,14.13,0,0,0,5.08-.86,11.29,11.29,0,0,0,3.78-2.36,10,10,0,0,0,2.36-3.54,11.85,11.85,0,0,0,.81-4.39,7.74,7.74,0,0,0-1-4.19,9,9,0,0,0-2.73-2.75,17.38,17.38,0,0,0-3.85-1.84c-1.43-.5-2.91-1-4.42-1.46s-3-1-4.43-1.6a14.75,14.75,0,0,1-3.84-2.25,10.33,10.33,0,0,1-2.73-3.42,11.36,11.36,0,0,1-1-5.14,12.15,12.15,0,0,1,.92-4.64,11.4,11.4,0,0,1,2.68-3.95,13.1,13.1,0,0,1,4.35-2.75,15.87,15.87,0,0,1,5.92-1,17.89,17.89,0,0,1,6.69,1.18,16,16,0,0,1,5.41,3.63Z"/><path class="cls-3" d="M418.81,228.53a18.77,18.77,0,0,1,5.33-4.54,13.45,13.45,0,0,1,6.73-1.69,12.6,12.6,0,0,1,4.9.88,8.94,8.94,0,0,1,3.51,2.54,11.14,11.14,0,0,1,2.1,4,18,18,0,0,1,.72,5.29v21.56h-3.26V235q0-4.75-2.17-7.44t-6.61-2.7a12,12,0,0,0-6.15,1.68,17.35,17.35,0,0,0-5.1,4.66v25.36h-3.26V207.24h3.26Z"/><path class="cls-3" d="M469.59,222.3a16.29,16.29,0,0,1,6.49,1.23,13.33,13.33,0,0,1,4.83,3.51,15.6,15.6,0,0,1,3,5.48,25.4,25.4,0,0,1,0,14.32,15.69,15.69,0,0,1-3,5.46,13.05,13.05,0,0,1-4.83,3.49,17.87,17.87,0,0,1-13,0,13.13,13.13,0,0,1-4.85-3.49,15.57,15.57,0,0,1-3-5.46,25.4,25.4,0,0,1,0-14.32,15.48,15.48,0,0,1,3-5.48,13.4,13.4,0,0,1,4.85-3.51A16.26,16.26,0,0,1,469.59,222.3Zm0,32.17a12.51,12.51,0,0,0,5.27-1,9.92,9.92,0,0,0,3.76-3,13.07,13.07,0,0,0,2.26-4.66,25.64,25.64,0,0,0,0-12.23,13.21,13.21,0,0,0-2.26-4.69,10,10,0,0,0-3.76-3,13.75,13.75,0,0,0-10.54,0,10.06,10.06,0,0,0-3.77,3,13.57,13.57,0,0,0-2.27,4.69,25,25,0,0,0,0,12.23,13.42,13.42,0,0,0,2.27,4.66,10,10,0,0,0,3.77,3A12.51,12.51,0,0,0,469.59,254.47Z"/><path class="cls-3" d="M500.57,228.91a17.82,17.82,0,0,1,5.24-4.85,12.82,12.82,0,0,1,6.73-1.8,11.75,11.75,0,0,1,9.68,4.31q3.46,4.31,3.47,12.91a23.87,23.87,0,0,1-1,6.9,16.53,16.53,0,0,1-2.85,5.56,13.44,13.44,0,0,1-4.61,3.71A13.89,13.89,0,0,1,511,257a13.19,13.19,0,0,1-5.93-1.25,12.22,12.22,0,0,1-4.34-3.7V268.5h-3.26V222.84h1.8a.9.9,0,0,1,1,.84Zm.14,20.3a14.37,14.37,0,0,0,2.05,2.46A10.36,10.36,0,0,0,505,253.3a9.65,9.65,0,0,0,2.53.9,14.31,14.31,0,0,0,2.83.27,11.73,11.73,0,0,0,5.22-1.09,10.23,10.23,0,0,0,3.75-3.07,13.92,13.92,0,0,0,2.27-4.74,22.77,22.77,0,0,0,.76-6.09q0-7.51-2.78-11.07a9.53,9.53,0,0,0-8-3.54,11,11,0,0,0-6.06,1.73,17.17,17.17,0,0,0-4.85,4.81Z"/><path id="_Path_3" data-name="&lt;Path&gt;" class="cls-4" d="M440.93,176.3a4.93,4.93,0,0,0,7.13,6.45c1.86-1.31,2.05-4.66,14.34-8.86,0,0,16.06-6.09,26.13,1.74,0,0,3.92,3.74-1.22,5.66,0,0-3,.88-.17,1.69,0,0,6.58-.12,6.81-4.95s-6.21-9.73-14.92-11.84c0,0-17.06-4.82-32.27,4.83A18.17,18.17,0,0,0,440.93,176.3Z"/><path id="_Compound_Path_" data-name="&lt;Compound Path&gt;" class="cls-4" d="M404.83,177.1c.27.67.55,1.31.82,2q.38-1,.78-2a20.12,20.12,0,0,1,.88-1.87l18-32.65a2,2,0,0,1,1-1,4.89,4.89,0,0,1,1.5-.18h5.3v53.11h-6.3v-39c0-.52,0-1.07,0-1.67s0-1.2.11-1.81l-18.2,33.2a2.77,2.77,0,0,1-2.6,1.68h-1a2.76,2.76,0,0,1-2.59-1.68l-18.61-33.31c.08.64.13,1.27.17,1.89s.06,1.18.06,1.7v39h-6.31V141.33h5.3a4.82,4.82,0,0,1,1.49.18,2.23,2.23,0,0,1,1,1L404,175.23C404.28,175.83,404.56,176.45,404.83,177.1Z"/><path id="_Compound_Path_2" data-name="&lt;Compound Path&gt;" class="cls-4" d="M540.14,141.33l-.64,6H517.76v47.07h-7.15V147.37H493.37v-6Z"/><path id="_Compound_Path_3" data-name="&lt;Compound Path&gt;" class="cls-4" d="M538,194.44V141.33H555a32.49,32.49,0,0,1,8.43,1,16.39,16.39,0,0,1,5.82,2.74,10.73,10.73,0,0,1,3.36,4.36,15.06,15.06,0,0,1,1.07,5.8A11.74,11.74,0,0,1,573,159a11.22,11.22,0,0,1-1.84,3.37,12.86,12.86,0,0,1-3.09,2.78,17.6,17.6,0,0,1-4.39,2q5.81,1.14,8.78,4.19a10.94,10.94,0,0,1,3,8,14.87,14.87,0,0,1-1.24,6.16,13,13,0,0,1-3.63,4.78,16.77,16.77,0,0,1-5.88,3.09,26.34,26.34,0,0,1-7.93,1.1Zm7.16-29.32h9.48a18.37,18.37,0,0,0,5.28-.67,10.66,10.66,0,0,0,3.71-1.85,7.2,7.2,0,0,0,2.17-2.88,9.61,9.61,0,0,0,.7-3.68q0-4.71-2.81-6.87T555,147h-9.78Zm0,5.12v18.49h11.49A17.55,17.55,0,0,0,562,188a9.53,9.53,0,0,0,3.65-2,7.64,7.64,0,0,0,2.1-3,11,11,0,0,0,.67-3.88,7.93,7.93,0,0,0-2.93-6.5c-2-1.6-4.89-2.39-8.78-2.39Z"/><path id="_Compound_Path_4" data-name="&lt;Compound Path&gt;" class="cls-4" d="M610.16,188.73a14.87,14.87,0,0,0,5.89-1.11,12.29,12.29,0,0,0,4.39-3.12,13.79,13.79,0,0,0,2.75-4.77,19,19,0,0,0,.94-6.13V141.33h7.15V173.6a24.37,24.37,0,0,1-1.46,8.53,19.75,19.75,0,0,1-4.19,6.8,19,19,0,0,1-6.66,4.5,24.51,24.51,0,0,1-17.63,0,19.21,19.21,0,0,1-6.67-4.5,19.65,19.65,0,0,1-4.21-6.8A24.37,24.37,0,0,1,589,173.6V141.33h7.15v32.24a19,19,0,0,0,.94,6.12,13.54,13.54,0,0,0,2.75,4.77,12.33,12.33,0,0,0,4.4,3.14A14.88,14.88,0,0,0,610.16,188.73Z"/><path id="_Path_4" data-name="&lt;Path&gt;" class="cls-4" d="M472.32,141.33h-7.26l-21.24,53.11h5.56a2.36,2.36,0,0,0,1.56-.53,2.56,2.56,0,0,0,.85-1.18l5-12.82.15-.4,10.19-26.37a22.43,22.43,0,0,0,.79-2.23c.27-.85.51-1.76.76-2.73.28,1,.54,1.87.8,2.71s.53,1.58.8,2.22l10.34,26.8,5,12.82a3.08,3.08,0,0,0,.89,1.23,2.41,2.41,0,0,0,1.55.48h5.57Z"/><g id="_Group_" data-name="&lt;Group&gt;"><path id="_Compound_Path_5" data-name="&lt;Compound Path&gt;" class="cls-5" d="M473.67,290a2.7,2.7,0,0,1-1-1.9c0-.24.39-.38,1.15-.42.1-1.1.24-2.34.4-3.72a4.72,4.72,0,0,1-1-3.42c0-1.51.13-2.26.4-2.26,0,0,.08,0,.1.09a2.48,2.48,0,0,0,1.55,1.24,1.75,1.75,0,0,1,1.09.15,5.86,5.86,0,0,0,2-.36,9.14,9.14,0,0,1,3-.53,6.38,6.38,0,0,1,5,2,7.68,7.68,0,0,1,1.76,5.3,17.33,17.33,0,0,1-.4,3.45q-1.51,7.06-6.79,8.65l-.44-.19a4.17,4.17,0,0,1-.92-.14,4.23,4.23,0,0,0-.94-.14,1.75,1.75,0,0,0-1,.5,1.8,1.8,0,0,1-1.1.49,2.7,2.7,0,0,1-1.68-.81q-1.28-1.08-1.27-5.92C473.6,291.33,473.62,290.65,473.67,290Zm4.42-2.46a8.42,8.42,0,0,1,2.86.38,1.29,1.29,0,0,1,.74,1.06,1,1,0,0,1-.23.62.72.72,0,0,1-.57.31,6.45,6.45,0,0,1-1.3-.19,11.47,11.47,0,0,0-1.36-.28v.12a4.79,4.79,0,0,1,2.57.78c-1.12-.17-2-.27-2.54-.31l.09,1.3a10.6,10.6,0,0,0,1.24,4.71,7.56,7.56,0,0,0,3.29-2.91,13.31,13.31,0,0,0,1.8-4.09,8.7,8.7,0,0,1-1.88,3.14,11.89,11.89,0,0,1-2.94,2.49,11.8,11.8,0,0,0,3.14-4.05,7.86,7.86,0,0,0,.65-3.32,12.12,12.12,0,0,0-.53-3.49c-.52-1.62-1.22-2.43-2.11-2.43a2.65,2.65,0,0,0-1.74,1c-.91,1-1.4,1.5-1.48,1.56C477.91,284.9,478,286.09,478.09,287.49Z"/><path id="_Compound_Path_6" data-name="&lt;Compound Path&gt;" class="cls-5" d="M496.73,292.64q.06,4.13,2.76,4.13a3.3,3.3,0,0,0,2.16-.81,11.45,11.45,0,0,0,1.62-1.7.34.34,0,0,1,.12-.12c.09,0,.13.15.13.45a3.12,3.12,0,0,1-.5,1.56,5.59,5.59,0,0,1-5.09,2.64l-.33,0q-5.78.09-5.77-7.25a12.92,12.92,0,0,1,.38-3.11,6.49,6.49,0,0,1,1.3-2.83,2.33,2.33,0,0,1,1.11-.57c.41-.11.82-.21,1.24-.29a1.78,1.78,0,0,1,.5-.12.24.24,0,0,1,.18.06,3,3,0,0,1,1.15-.15,9.69,9.69,0,0,1,1.09.06,2.78,2.78,0,0,1,3.61.78,3.71,3.71,0,0,1,1,2.56q0,3.6-4.85,5a4.62,4.62,0,0,1-1.3.21,2.38,2.38,0,0,1-.39,0,4,4,0,0,0,3.16-1.86l0,0A5.62,5.62,0,0,1,496.73,292.64Zm.79,7.15a1.72,1.72,0,0,1,1.14.54,1.57,1.57,0,0,1,.57,1.12.76.76,0,0,1-.62.76,2.38,2.38,0,0,0-.65.27c-.09.33-.25.82-.47,1.45a.35.35,0,0,1-.06.09.17.17,0,0,1,0-.12q0-.18,0-.54c0-.23,0-.41,0-.53a1,1,0,0,0-.18-.68,8.85,8.85,0,0,0-.79-.5,1,1,0,0,1-.48-.75,1,1,0,0,1,.52-.76A1.75,1.75,0,0,1,497.52,299.79Zm-.79-7.71c2-.51,3-1.94,3-4.27a1.74,1.74,0,0,0-1.42-1.71A11.59,11.59,0,0,0,496.73,292.08Z"/><path id="_Compound_Path_7" data-name="&lt;Compound Path&gt;" class="cls-5" d="M512.93,287.93a7.53,7.53,0,0,1,1.39-2.45,3.32,3.32,0,0,1,2.51-1,3,3,0,0,1,3,1.75,9.37,9.37,0,0,1,.53,3.67c0,3.55-.8,6-2.39,7.25a4.73,4.73,0,0,1-3,.77,9.59,9.59,0,0,1-1.42-.12c-.79-.12-1.19-.28-1.19-.46s.1-.13.29-.19a7.46,7.46,0,0,0,2.2-1.28,5.31,5.31,0,0,0,1.3-2.22,4.63,4.63,0,0,1-1.21,1.69,2.81,2.81,0,0,1-1.86.82h-.28a2.88,2.88,0,0,0,2.17-1.47,8.77,8.77,0,0,0,1.24-5.1c0-1.43-.32-2.15-.95-2.15s-1.38.86-2,2.58a18.18,18.18,0,0,0-1,3.48q-.27,1.81-.42,5.63c-.05,1.18-.08,2.12-.08,2.83a6.62,6.62,0,0,0,.41,3,.65.65,0,0,1,.15.25.09.09,0,0,0-.06,0c-.24,0-.55-.26-.92-.8a4.49,4.49,0,0,1-.59-1.15,12.61,12.61,0,0,1-.35-3.57c0-.56,0-1.14.06-1.76a14.43,14.43,0,0,0-.24,2.7,14.24,14.24,0,0,0,.27,3.09,4.72,4.72,0,0,0,.38,1,4.55,4.55,0,0,0,.68.69,4.21,4.21,0,0,1-3-3.32,31.34,31.34,0,0,1-.36-5.83c0-.7,0-1.76,0-3.16s0-2.46,0-3.16a6.89,6.89,0,0,0-.41-2.88s-.2-.25-.49-.62a1.46,1.46,0,0,1-.34-.56c0-.47.71-.84,2.13-1.09a17.89,17.89,0,0,1,2.89-.24c.83,0,1.24.29,1.24.89C513.21,285.68,513.12,286.51,512.93,287.93Z"/><path id="_Compound_Path_8" data-name="&lt;Compound Path&gt;" class="cls-5" d="M542.31,284.5a12.83,12.83,0,0,1,3.31.8.63.63,0,0,1,.25.3.46.46,0,0,0,.25.18c.12.05.18.1.18.14s-.08.09-.25.09a3.19,3.19,0,0,1-.65-.11,2.85,2.85,0,0,0-.65-.1,14.66,14.66,0,0,0-2,.24l-.33.06a0,0,0,0,0,0,0,7.56,7.56,0,0,1,1.07.09s0,0,.06.06a.24.24,0,0,1-.09.08,11.73,11.73,0,0,1-1.3.3c-.39,4.84-.59,8.44-.59,10.82a6.5,6.5,0,0,0,.41,3,1,1,0,0,1,.12.23,0,0,0,0,1,0,0c-.24,0-.55-.26-.92-.77a5,5,0,0,1-.59-1.15,11.76,11.76,0,0,1-.38-3.58c0-.57,0-1.16.06-1.75a16.29,16.29,0,0,0-.21,2.66,15.21,15.21,0,0,0,.27,3.14,2.8,2.8,0,0,0,.38,1,4.56,4.56,0,0,0,.68.68,4.19,4.19,0,0,1-3-3.34,75,75,0,0,1-.68-10.24l-2.2.21s-.12,0-.23-.09-.18-.17-.18-.21,0-.28-.09-.3a.37.37,0,0,1-.27-.17c0-.2-.07-.49-.14-.86a.42.42,0,0,0-.16-.23.34.34,0,0,1-.14-.24l.18-.24a1.53,1.53,0,0,1,.12-.44,3.38,3.38,0,0,1,1.44-.47c.66-.1,1.18-.17,1.57-.21,0-.36-.06-.87-.12-1.55a3.32,3.32,0,0,0-.65-1.43,5,5,0,0,1-.53-.78c0-.47.74-.83,2.21-1.07a18.06,18.06,0,0,1,3-.26c.83,0,1.24.32,1.24.94Q542.67,280.33,542.31,284.5Z"/><path id="_Compound_Path_9" data-name="&lt;Compound Path&gt;" class="cls-5" d="M561.31,287.74v.54c0,.45,0,1.14,0,2v2.05q0,4.89.72,4.89c.33,0,.49.05.49.16s-.29.51-.87.81a6.27,6.27,0,0,1-1.16.47,3.53,3.53,0,0,1-1,.15,1.15,1.15,0,0,1-.77-.19q-1-.78-1.5-4.63Q556,299,553.87,299a3.27,3.27,0,0,1-2.79-1.77,8.87,8.87,0,0,1-1.18-3.32s0,.28,0,.71a4.52,4.52,0,0,0,.61,2.57,2.79,2.79,0,0,0,1.69,1.4,2.28,2.28,0,0,1-2.3-1.26,9.85,9.85,0,0,1-.59-4.19c0-.47,0-1.19.09-2.14s.09-1.65.09-2.11a4,4,0,0,0-.62-2.5.53.53,0,0,1-.12-.29c0-.43.47-.83,1.42-1.18a5.77,5.77,0,0,1,2-.45c1.26,0,1.89.92,1.89,2.78,0,.6-.07,1.5-.2,2.7s-.2,2.09-.2,2.69c0,1.8.45,2.7,1.34,2.7.51,0,.9-.76,1.18-2.26.14-.85.27-2.27.39-4.25a6.44,6.44,0,0,1,.32-2.41,3.18,3.18,0,0,1,.24-1.36,1.32,1.32,0,0,1,1.24-.53,10.78,10.78,0,0,1,2.64.59c.15.05.25.44.31,1.18,0-.51,0-.89,0-1.15,0-.69-.08-1.09-.23-1.21s-.58-.48-.88-.7a1.18,1.18,0,0,1-.56-.92,1.39,1.39,0,0,1,.64-1.06,2,2,0,0,1,1.23-.5,2,2,0,0,1,1.45.75,2.24,2.24,0,0,1,.69,1.5,1,1,0,0,1-.16.56,11.64,11.64,0,0,0-.73,1.5q-.16.42-.72,1.5A9.46,9.46,0,0,1,561.31,287.74Zm-8.62-8.21a.21.21,0,0,1,.16.09,8.45,8.45,0,0,0,2.1,2.14,9.43,9.43,0,0,0,2.52,1.56l.12.06c0,.2-.3.3-.83.3l-.38,0-2.33-.36a5.14,5.14,0,0,1-2.08-.84,1.19,1.19,0,0,1-.39-.94,3,3,0,0,1,.33-1.15C552.17,279.81,552.42,279.53,552.69,279.53Z"/><path id="_Compound_Path_10" data-name="&lt;Compound Path&gt;" class="cls-5" d="M583.92,284.5a13,13,0,0,1,3.31.8.62.62,0,0,1,.24.3.51.51,0,0,0,.25.18c.13.05.19.1.19.14s-.08.09-.26.09a3.12,3.12,0,0,1-.64-.11,3,3,0,0,0-.66-.1,14.72,14.72,0,0,0-2,.24l-.33.06a0,0,0,0,0,0,0,7.56,7.56,0,0,1,1.07.09s0,0,.06.06a.24.24,0,0,1-.09.08,11.73,11.73,0,0,1-1.3.3c-.39,4.84-.59,8.44-.59,10.82a6.5,6.5,0,0,0,.41,3,1,1,0,0,1,.12.23,0,0,0,0,1,0,0c-.24,0-.55-.26-.92-.77a5.59,5.59,0,0,1-.6-1.15,12.17,12.17,0,0,1-.37-3.58c0-.57,0-1.16.06-1.75a16.29,16.29,0,0,0-.21,2.66,15.21,15.21,0,0,0,.27,3.14,2.61,2.61,0,0,0,.38,1,4,4,0,0,0,.68.68,4.22,4.22,0,0,1-3.05-3.34,78.66,78.66,0,0,1-.68-10.24l-2.19.21s-.12,0-.24-.09-.17-.17-.17-.21,0-.28-.09-.3a.37.37,0,0,1-.27-.17c0-.2-.07-.49-.14-.86a.4.4,0,0,0-.17-.23.32.32,0,0,1-.13-.24l.18-.24a1.53,1.53,0,0,1,.12-.44,3.38,3.38,0,0,1,1.44-.47c.65-.1,1.18-.17,1.57-.21,0-.36-.06-.87-.12-1.55a3.44,3.44,0,0,0-.65-1.43,5,5,0,0,1-.53-.78c0-.47.74-.83,2.21-1.07a18.06,18.06,0,0,1,3-.26c.83,0,1.24.32,1.24.94Q584.28,280.33,583.92,284.5Z"/><path id="_Compound_Path_11" data-name="&lt;Compound Path&gt;" class="cls-5" d="M604.2,297c.28,0,.42.09.42.25,0,.43-.39.84-1.15,1.24a4,4,0,0,1-1.73.53,2.27,2.27,0,0,1-.65-.09c-1-.28-1.75-2.35-2.12-6.24q-2.46,5.92-4.68,5.86h-.06a5.9,5.9,0,0,1-2.51-.46,3.29,3.29,0,0,1-1.21-2.11,8.6,8.6,0,0,1-.18-1.85,19.09,19.09,0,0,1,.71-4.88c.6-2.17,1.33-3.55,2.21-4.14a5,5,0,0,1,3-.82,10.09,10.09,0,0,1,1.8.23c1,.16,1.51.34,1.51.56t-.09.06a6.23,6.23,0,0,0-3.28,3.25,9.53,9.53,0,0,0-1.34,4.53,3.53,3.53,0,0,0,.25,1.3c.21.55.49.83.84.83q1,0,2.49-4.71a11.45,11.45,0,0,0,.39-1.3,8.9,8.9,0,0,1,.18-1.83,3,3,0,0,1,3-1.86,2.71,2.71,0,0,1,.9.12c.23.08.36,1.22.41,3.41q0,1.92.06,3.87c0,.73.07,1.79.21,3.19C603.71,296.6,603.92,297,604.2,297Zm-10.38-4a2.86,2.86,0,0,0,.47,1.6,1.49,1.49,0,0,0,1.31.88l.31,0c-.5-.05-.89-.43-1.18-1.15a4.68,4.68,0,0,1-.34-1.77,10.91,10.91,0,0,1,.49-3.16A7.5,7.5,0,0,0,593.82,292.93Zm5.29-11.29a5.52,5.52,0,0,0,1.1.74,3.34,3.34,0,0,0,1.39.5h.14a.12.12,0,0,1,.09.12c0,.17-.15.37-.45.61a1.43,1.43,0,0,1-.88.36c-.43,0-1.33-.65-2.69-2a18.28,18.28,0,0,1-1.65,1.87,1.55,1.55,0,0,1-.53.09,4.09,4.09,0,0,1-1-.18c-.49-.14-.74-.25-.74-.35s0,0,.06,0c.28,0,.76-.5,1.45-1.36a4.39,4.39,0,0,0,1-1.69c0-.18.2-.27.59-.27a9.84,9.84,0,0,1,1.18.09c.61.1.91.22.91.35a3.27,3.27,0,0,0-.38.33,5.39,5.39,0,0,0,2.78,1.84,4.15,4.15,0,0,1-2.4-1.09Z"/><path id="_Compound_Path_12" data-name="&lt;Compound Path&gt;" class="cls-5" d="M627.86,292.7l0,.29a11,11,0,0,0,.24,2.19,4.45,4.45,0,0,0,.91,2,.24.24,0,0,1,.09.16c0,.27-.39.49-1.18.68a5.87,5.87,0,0,1-1.45.22c-1.58,0-2.36-.89-2.36-2.67a19.25,19.25,0,0,1,.45-3.41,19.23,19.23,0,0,0,.45-3.42c0-.94-.37-1.42-1.12-1.42-1.14,0-2,1.21-2.66,3.64a20.51,20.51,0,0,0-.65,5,1.29,1.29,0,0,0,.24.71,1.47,1.47,0,0,1,.24.47c0,.33-.34.59-1,.77a5.49,5.49,0,0,1-1.45.23,2.25,2.25,0,0,1-1.9-.69,3.24,3.24,0,0,1-.46-2,15.83,15.83,0,0,1,.43-3.39c.25-1.11.49-2.22.75-3.35a2.6,2.6,0,0,0,0-.36c0-.77-.47-1.15-1.4-1.15q-2,0-3.13,3.47a16.74,16.74,0,0,0-.83,5.14c0,.55,0,1.12.09,1.72q.51.15.51.3c0,.17-.28.25-.86.25a3.13,3.13,0,0,1-2-.55q-.66-.57-1.35-6.3a69.29,69.29,0,0,1-.58-6.95c0-.39.67-.59,2-.59,2.13,0,3.19.71,3.19,2.12,0,.22-.13,1.32-.41,3.28,1.14-2.85,2.45-4.44,3.91-4.75a5.64,5.64,0,0,1,1.27-.15q3.36,0,3.1,4.62a10.43,10.43,0,0,1,1.77-3.2,4.3,4.3,0,0,1,3.26-1.3,2.78,2.78,0,0,1,2.22.89,3.45,3.45,0,0,1,.76,2.34,20.56,20.56,0,0,1-.29,2.24,15.09,15.09,0,0,0-.24,2.57,9.57,9.57,0,0,0,1,4.49A6.06,6.06,0,0,1,627.86,292.7Zm-18.93-2c.06,3.95.37,6.12,1,6.51a5.46,5.46,0,0,0,.68.47,0,0,0,0,0,0,0s-.05,0-.15-.12a5,5,0,0,1-.47-1.43Q609.64,294.32,608.93,290.72Z"/><path id="_Compound_Path_13" data-name="&lt;Compound Path&gt;" class="cls-5" d="M638.21,297a1.11,1.11,0,0,1-.77,1,3.16,3.16,0,0,0-1,.49c-.06.15-.13.23-.21.23l-.88-.44c-.44-.14-.87-.3-1.3-.47q-.87-.36-.87-.9a.24.24,0,0,1,0-.15,3,3,0,0,1,1-1.19,2.4,2.4,0,0,1,1.43-.49,3,3,0,0,1,1.65.58A1.61,1.61,0,0,1,638.21,297Z"/><path id="_Compound_Path_14" data-name="&lt;Compound Path&gt;" class="cls-5" d="M647.07,297a1.09,1.09,0,0,1-.77,1,3.31,3.31,0,0,0-1,.49c-.06.15-.13.23-.21.23l-.88-.44c-.43-.14-.87-.3-1.3-.47s-.86-.54-.86-.9a.24.24,0,0,1,0-.15,2.85,2.85,0,0,1,1-1.19,2.37,2.37,0,0,1,1.42-.49,3.06,3.06,0,0,1,1.66.58A1.59,1.59,0,0,1,647.07,297Z"/><path id="_Compound_Path_15" data-name="&lt;Compound Path&gt;" class="cls-5" d="M655.94,297a1.1,1.1,0,0,1-.78,1,3.18,3.18,0,0,0-1,.49c-.06.15-.14.23-.22.23s-.31-.15-.87-.44c-.44-.14-.87-.3-1.31-.47s-.86-.54-.86-.9a.24.24,0,0,1,0-.15,2.93,2.93,0,0,1,1-1.19,2.39,2.39,0,0,1,1.42-.49,3,3,0,0,1,1.66.58A1.61,1.61,0,0,1,655.94,297Z"/></g></g></g></svg>